# xmcd
#
# Track frame offsets:
#	150
#	10499
#	29383
#	38646
#	60542
#	72159
#	92332
#	101511
#	121769
#	133237
#	148863
#	160144
#	171470
#
# Disc length: 2615 seconds
#
# Revision: 0
# Processed by: cddbd v1.5.1PL2 Copyright (c) Steve Scherf et al.
# Submitted via: dBpowerAMP V4.0
#
DISCID=ae0a350d
DTITLE=Dan Paisley and the Southern Grass - The Tradition Continues
DYEAR=2005
DGENRE=Bluegrass
TTITLE0=Won't You Think Of Me 
TTITLE1=I'm Longing For A Love I'll Never Know 
TTITLE2=Banjo Boy Chimes
TTITLE3=Leaves Musn't Fall 
TTITLE4=My Old Kentucky Home 
TTITLE5=A Few More Seasons 
TTITLE6=Flatwoods
TTITLE7=Old Hickory Cane 
TTITLE8=Blackmail Your Heart 
TTITLE9=I'll Break Out 
TTITLE10=Sweeping Through The Gates 
TTITLE11=Amandalina
TTITLE12=Heavenly Light - Bob Paisley
EXTD=
EXTT0=
EXTT1=
EXTT2=
EXTT3=
EXTT4=
EXTT5=
EXTT6=
EXTT7=
EXTT8=
EXTT9=
EXTT10=
EXTT11=
EXTT12=
PLAYORDER=
